<svg width="94" height="65" fill="none" xmlns="http://www.w3.org/2000/svg"><path d="M2.458 7.19c.51-.035.606-.063.606-1.02V2.267c0-.379-.01-.396-.292-.396h-.606c-.998 0-1.29.099-1.692.83-.076.054-.303.027-.347-.063C.312 2.15.474 1.59.55 1.274c.021-.027.066-.036.12-.036.042 0 .086.009.108.036.054.226.206.235.942.235h4.424c.53 0 .693-.027.824-.235a.353.353 0 01.13-.036c.065 0 .119.018.14.045-.108.37-.195 1.146-.162 1.436-.054.073-.239.09-.336.027-.14-.705-.347-.875-1.507-.875h-.618c-.282 0-.293.017-.293.396V6.17c0 .957.098.985.608 1.03l.39.036c.076.063.065.226-.022.262a55.742 55.742 0 00-1.594-.028c-.476 0-.986.01-1.68.028-.087-.036-.097-.217-.021-.262l.455-.045zM17.92 1.562c.13.028.205.037.303.055.022.208.043.74.152 1.41-.076.07-.272.08-.347.018-.185-.57-.673-1.32-2.103-1.32-1.377 0-2.765.814-2.765 2.665 0 1.925 1.442 2.863 2.84 2.863 1.367 0 1.963-.758 2.266-1.345.098-.082.27-.046.326.035-.076.606-.369 1.202-.521 1.374-.13.018-.26.053-.38.08a7.612 7.612 0 01-1.69.218c-1.074 0-1.995-.18-2.775-.606-.879-.478-1.54-1.3-1.54-2.484 0-1.057.564-1.878 1.366-2.393.802-.506 1.898-.768 2.992-.768.617 0 1.366.09 1.875.198zm11.827 3.28c0-.244-.033-.262-.586-.262h-2.536c-.553 0-.586.018-.586.262V6.17c0 .957.099.985.607 1.03l.325.036c.076.063.066.225-.02.262a47.455 47.455 0 00-1.53-.028c-.476 0-.964.01-1.376.028-.087-.037-.097-.199-.022-.262l.152-.018c.51-.063.607-.091.607-1.048V2.81c0-.957-.098-.985-.607-1.04l-.24-.026c-.075-.045-.064-.226.023-.262a39.7 39.7 0 001.463.027c.477 0 .965-.01 1.388-.027.087.036.098.217.022.262l-.185.027c-.508.054-.607.082-.607 1.039v1.092c0 .253.033.271.586.271h2.536c.553 0 .586-.018.586-.27V2.81c0-.957-.098-.985-.607-1.04l-.239-.026c-.075-.045-.065-.226.023-.262a36.595 36.595 0 002.861 0c.087.036.097.217.021.262l-.194.027c-.51.054-.608.082-.608 1.039v3.36c0 .957.097.985.608 1.039l.238.027c.076.063.065.225-.022.262a38.663 38.663 0 00-2.904 0c-.088-.037-.098-.199-.023-.262l.239-.027c.509-.054.607-.082.607-1.04V4.843zM37.935 7.2c.509-.045.606-.073.606-1.03V2.81c0-.957-.097-.985-.606-1.048l-.174-.018c-.076-.064-.065-.226.022-.262.412.018.921.027 1.398.027h2.07c.695 0 1.323-.01 1.464-.027.043.154.108.867.173 1.255-.043.073-.26.09-.346.036-.174-.523-.336-.75-.684-.822-.248-.063-.574-.08-.867-.08h-.725c-.467 0-.467.017-.467.532V3.93c0 .236.011.244.26.244h.521c.943 0 1.127-.008 1.203-.397l.075-.308c.088-.062.294-.062.348.01-.011.244-.034.57-.034.903 0 .344.023.66.034.949-.054.063-.26.063-.348.009l-.075-.361c-.076-.38-.26-.398-1.203-.398h-.521c-.249 0-.26.018-.26.244v1.147c0 .462.022.785.185.94.13.126.314.198 1.225.198 1.376.018 1.614-.244 1.994-.975.097-.064.282-.036.347.053-.065.38-.304 1.066-.456 1.31a88.059 88.059 0 00-2.678-.027h-1.235c-.477 0-1.138.01-1.626.028-.087-.036-.098-.199-.022-.262l.402-.036zm11.221.036c-.097.063-.065.225.022.261a38.678 38.678 0 012.906 0c.086-.036.097-.198.02-.261l-.237-.028c-.51-.054-.608-.081-.608-1.038V5.013c0-.19.011-.199.336-.199.358 0 .477.037.673.308.259.352.563.85.855 1.228.662.84 1.226 1.193 2.266 1.193.38 0 .586-.027.716-.055.032-.045.032-.144-.022-.18a1.535 1.535 0 01-.748-.28c-.51-.352-1.052-1.12-1.92-2.34-.042-.055-.063-.126 0-.154.532-.18 1.302-.596 1.302-1.427 0-.65-.4-1.075-.954-1.319-.477-.216-1.213-.306-2.06-.306-.889 0-1.81.027-2.493.08-.086.046-.086.19-.01.254l.281.027c.51.045.52.153.52 1.02V6.17c0 .957-.097.984-.607 1.038l-.238.028zM53.33 3.18c0 .858-.488 1.292-1.55 1.292-.521 0-.521-.018-.521-.308V2.285c0-.415.011-.442.575-.442.943 0 1.496.623 1.496 1.337zm14.853-1.183c-.151.28-.151 1.066-.151 1.78v2.158c0 .271 0 1.382.032 1.59-.087.1-.238.136-.369.126-.173-.19-.487-.496-1.267-1.237L63.89 4.002c-.704-.66-1.051-1.002-1.236-1.139-.032 0-.032.1-.032.579v1.761c0 .678.011 1.509.195 1.78.098.135.283.19.553.226l.24.027c.097.064.085.234-.023.262a27.928 27.928 0 00-1.236-.028c-.455 0-.748.01-1.127.028-.087-.046-.109-.198-.022-.262l.238-.045c.207-.027.402-.064.478-.209.14-.279.14-1.065.14-1.779v-2.14c0-.705.011-.85-.357-1.112-.12-.08-.423-.153-.575-.18l-.162-.027c-.076-.055-.065-.235.043-.262.412.036 1.008.027 1.279.027.228 0 .488-.009.748-.027.185.389 1.367 1.526 1.745 1.87l1.084.975c.456.416 1.464 1.373 1.573 1.428.032-.027.032-.073.032-.217V3.777c0-.679-.011-1.51-.206-1.78-.097-.135-.271-.19-.542-.226l-.25-.027c-.097-.064-.086-.235.022-.262.423.018.823.027 1.247.027.466 0 .748-.009 1.138-.027.087.045.108.198.022.262l-.25.045c-.206.027-.39.064-.466.208zm9.671 5.618c2.19 0 3.815-1.328 3.815-3.107 0-1.645-1.289-3.144-3.793-3.144-2.276 0-3.88 1.364-3.88 3.207 0 1.607 1.408 3.044 3.858 3.044zm.109-.362c-1.853 0-2.493-1.698-2.493-2.944 0-1.924 1.181-2.584 2.265-2.584 1.723 0 2.46 1.581 2.46 2.945 0 1.816-.996 2.583-2.232 2.583zm15.048-5.094c-.304.434-.618 1.039-1.106 1.951l-.607 1.12c-.433.822-.943 1.878-1.127 2.34-.022.027-.108.045-.185.045a.476.476 0 01-.206-.045c-.13-.362-.303-.805-.498-1.184l-1.898-3.802c-.302-.606-.4-.731-.834-.804l-.261-.045c-.075-.064-.075-.226.033-.253.423.018.89.027 1.312.027.488 0 .856-.01 1.43-.027a.153.153 0 01.012.261l-.27.054c-.24.046-.326.091-.326.163 0 .081.086.28.53 1.202l.781 1.607c.195.407.489.94.596 1.148.586-1.139 1.236-2.385 1.81-3.614.175-.361.142-.432-.184-.496l-.314-.064c-.076-.072-.065-.216.021-.261.445.018.814.027 1.161.027.39 0 .748-.01 1.052-.027.086.045.075.189.02.261l-.27.045c-.25.045-.488.11-.672.37zM4.312 63.953c-2.19 0-3.057-1.437-3.057-3.113 0-2.261 1.42-3.115 3.304-3.115 1.459 0 2.524.649 2.75 1.873h-.69c-.276-1.01-1.025-1.397-2.238-1.397-1.716 0-2.455 1.224-2.455 2.621 0 1.323.582 2.654 2.514 2.654 1.223 0 1.983-.69 2.249-1.626h.7c-.316 1.142-1.174 2.103-3.077 2.103zm25.198-.156l-2.723-5.916h-.76l-2.79 5.916h.69l.838-1.857H28l.82 1.857h.69zm-1.737-2.333h-2.78l1.39-3.107 1.39 3.107zm22.64.665c0 1.028-.69 1.192-2.17 1.192h-1.705v-2.35h1.785c1.261 0 2.09.18 2.09 1.158zm.671 0c0-.78-.484-1.348-1.46-1.471v-.016c.572-.082 1.134-.453 1.134-1.274 0-.887-.66-1.487-2.327-1.487h-2.564v5.916h2.9c1.35 0 2.317-.435 2.317-1.668zm-.997-2.761c0 .715-.453 1.126-1.853 1.126h-1.696v-2.137h1.548c1.47 0 2.002.272 2.002 1.01zm17.761 4.429v-5.916h.67v5.44h3.807v.476h-4.477zm20.67 0v-5.916h4.723v.476H89.19v2.137h3.658v.476H89.19v2.35h4.15v.477h-4.82zM77.85 31.505c1.036.482 2.069.985 3.1 1.516a86.068 86.068 0 01-3.1 1.517 84.095 84.095 0 00-3.64-1.516 83.948 83.948 0 003.64-1.517zm-8.858-.316a76.47 76.47 0 00-5.889-1.599 76.45 76.45 0 005.89-1.6 77.9 77.9 0 014.416 1.6 77.897 77.897 0 01-4.417 1.6zm.001 6.862a76.455 76.455 0 00-5.888-1.599 76.416 76.416 0 005.887-1.599 77.736 77.736 0 014.417 1.6 78.078 78.078 0 01-4.416 1.598zm-11.1 2.706c-8.713 1.389-17.526 1.091-26.249-.874a70.305 70.305 0 0112.705-1.675c1.787.067 3.575.065 5.36-.001 2.734.106 5.464.37 8.183.803a70.52 70.52 0 014.51.873 70.29 70.29 0 01-4.51.874zm-30.606-10.25a78.9 78.9 0 00-2.307.681 76.785 76.785 0 01-4.432-1.598 76.183 76.183 0 014.431-1.598 79.35 79.35 0 002.308.682c1.217.338 2.435.641 3.656.916a76.4 76.4 0 00-3.656.916zm0 6.86a80.59 80.59 0 00-2.308.683 76.723 76.723 0 01-4.43-1.597 76.53 76.53 0 014.431-1.599 77.42 77.42 0 002.307.683c1.216.337 2.434.64 3.655.915-1.22.275-2.439.579-3.655.916zM16.096 34.53a80.097 80.097 0 01-3.052-1.509 80.38 80.38 0 013.052-1.509 81.235 81.235 0 003.621 1.51 82.026 82.026 0 00-3.621 1.508zm46.305-1.509a70.26 70.26 0 01-4.509.874 69.008 69.008 0 01-8.18.803 71.84 71.84 0 00-5.365-.001 70.324 70.324 0 01-12.702-1.675 70.329 70.329 0 0112.711-1.676c1.782.066 3.564.065 5.345-.001a68.864 68.864 0 0112.7 1.676zm-4.51-7.736c1.506.24 3.01.533 4.51.874a68.83 68.83 0 01-12.7 1.677 71.986 71.986 0 00-5.346-.001 70.313 70.313 0 01-12.71-1.676c8.722-1.965 17.535-2.263 26.247-.874zM93.56 11.48c-8 5.817-16.226 10.114-24.567 12.848a75.015 75.015 0 00-10.687-2.523c-10.307-1.63-20.743-1.01-31.02 1.84-.784.217-1.55.447-2.307.682C11.634 19.975 2.78 12.963 1.04 11.513v4.401c3.315 2.483 9.782 6.792 18.678 10.245a82.1 82.1 0 00-3.621 1.509c-8.335-3.906-13.734-8.19-15.057-9.292v4.4c2.273 1.701 6.025 4.26 11.025 6.814a82.59 82.59 0 00-2.654 1.416c-4.529-2.67-7.448-4.999-8.37-5.768v4.4a71.544 71.544 0 004.958 3.383 71.536 71.536 0 00-4.959 3.384v4.4c.923-.769 3.842-3.097 8.371-5.768.84.468 1.727.942 2.654 1.416-5 2.554-8.752 5.112-11.025 6.813v4.402c1.323-1.102 6.723-5.387 15.057-9.293a82.276 82.276 0 003.62 1.509C10.82 43.337 4.354 47.645 1.04 50.127v4.402c1.741-1.45 10.595-8.462 23.94-12.813.757.236 1.523.465 2.308.683 10.276 2.85 20.712 3.469 31.019 1.839a75.043 75.043 0 0010.687-2.522c8.342 2.733 16.567 7.03 24.567 12.846v-4.247c-6.327-4.393-12.794-7.874-19.35-10.431a84.562 84.562 0 003.64-1.517c5.31 2.474 10.557 5.59 15.71 9.336v-4.246c-3.846-2.67-7.743-5.009-11.68-7.004.909-.462 1.817-.94 2.722-1.437a100.262 100.262 0 018.958 5.826v-4.245a105.343 105.343 0 00-5.512-3.576 105.463 105.463 0 005.512-3.575v-4.245a100.13 100.13 0 01-8.958 5.825 92.541 92.541 0 00-2.722-1.436c3.938-1.995 7.834-4.335 11.68-7.005V18.34c-5.153 3.746-10.4 6.86-15.71 9.335a84.071 84.071 0 00-3.64-1.516c6.555-2.558 13.022-6.04 19.35-10.433V11.48z" fill="#fff"/></svg>